<svg xmlns="http://www.w3.org/2000/svg" viewBox="0 0 64 64">
  <!-- Antennae -->
  <line x1="24" y1="18" x2="18" y2="6" stroke="#333" stroke-width="3" stroke-linecap="round"/>
  <line x1="40" y1="18" x2="46" y2="6" stroke="#333" stroke-width="3" stroke-linecap="round"/>
  <circle cx="18" cy="5" r="3" fill="#333"/>
  <circle cx="46" cy="5" r="3" fill="#333"/>
  <!-- Body -->
  <ellipse cx="32" cy="24" rx="12" ry="9" fill="#e05d44"/>
  <ellipse cx="32" cy="43" rx="16" ry="17" fill="#e05d44"/>
  <!-- Body line -->
  <line x1="32" y1="26" x2="32" y2="58" stroke="#333" stroke-width="2"/>
  <!-- Legs -->
  <line x1="18" y1="34" x2="6" y2="28" stroke="#333" stroke-width="3" stroke-linecap="round"/>
  <line x1="46" y1="34" x2="58" y2="28" stroke="#333" stroke-width="3" stroke-linecap="round"/>
  <line x1="16" y1="43" x2="4" y2="43" stroke="#333" stroke-width="3" stroke-linecap="round"/>
  <line x1="48" y1="43" x2="60" y2="43" stroke="#333" stroke-width="3" stroke-linecap="round"/>
  <line x1="18" y1="52" x2="8" y2="58" stroke="#333" stroke-width="3" stroke-linecap="round"/>
  <line x1="46" y1="52" x2="56" y2="58" stroke="#333" stroke-width="3" stroke-linecap="round"/>
  <!-- Eyes -->
  <circle cx="27" cy="22" r="3" fill="white"/>
  <circle cx="37" cy="22" r="3" fill="white"/>
  <circle cx="27" cy="22" r="1.5" fill="#333"/>
  <circle cx="37" cy="22" r="1.5" fill="#333"/>
</svg>
